name Walk1.mot
datacolumns 19
datarows 22
range 1.47700000 1.49800000
endheader

                time	   L_ground_force_vx	   L_ground_force_vy	   L_ground_force_vz	   L_ground_force_px	   L_ground_force_py	   L_ground_force_pz	   R_ground_force_vx	   R_ground_force_vy	   R_ground_force_vz	   R_ground_force_px	   R_ground_force_py	   R_ground_force_pz	   L_ground_torque_x	   L_ground_torque_y	   L_ground_torque_z	   R_ground_torque_x	   R_ground_torque_y	   R_ground_torque_z	
          1.47700000	         -0.01385570	          0.47491520	         -0.05252905	          0.00049883	          0.00000000	          0.00038042	         24.31271713	        693.05953987	        -13.43921667	         -0.10585135	          0.00000000	          0.36093033	          0.00000000	         -0.00000968	          0.00000000	          0.00000000	          1.16527230	          0.00000000	
          1.47800000	         -0.01674403	          0.48768744	         -0.05355690	          0.00050510	          0.00000000	          0.00038401	         24.75948245	        694.37455846	        -13.55383603	         -0.10554341	          0.00000000	          0.36090420	          0.00000000	         -0.00003066	          0.00000000	          0.00000000	          1.14981971	          0.00000000	
          1.47900000	         -0.01983161	          0.49963245	         -0.05445907	          0.00050987	          0.00000000	          0.00038635	         25.21007609	        695.67963021	        -13.67086454	         -0.10523564	          0.00000000	          0.36087701	          0.00000000	         -0.00005346	          0.00000000	          0.00000000	          1.13424677	          0.00000000	
          1.48000000	         -0.02312421	          0.51062400	         -0.05522017	          0.00051298	          0.00000000	          0.00038731	         25.66452433	        696.97449296	        -13.79021995	         -0.10492806	          0.00000000	          0.36084874	          0.00000000	         -0.00007815	          0.00000000	          0.00000000	          1.11857053	          0.00000000	
          1.48100000	         -0.02662726	          0.52052812	         -0.05582395	          0.00051427	          0.00000000	          0.00038677	         26.12285608	        698.25889413	        -13.91180683	         -0.10462070	          0.00000000	          0.36081936	          0.00000000	         -0.00010482	          0.00000000	          0.00000000	          1.10280703	          0.00000000	
          1.48200000	         -0.03034587	          0.52920284	         -0.05625328	          0.00051354	          0.00000000	          0.00038457	         26.58510286	        699.53258925	        -14.03551640	         -0.10431357	          0.00000000	          0.36078885	          0.00000000	         -0.00013354	          0.00000000	          0.00000000	          1.08697128	          0.00000000	
          1.48300000	         -0.03428470	          0.53649810	         -0.05649018	          0.00051063	          0.00000000	          0.00038059	         27.05129886	        700.79534085	        -14.16122634	         -0.10400671	          0.00000000	          0.36075720	          0.00000000	         -0.00016437	          0.00000000	          0.00000000	          1.07107737	          0.00000000	
          1.48400000	         -0.03844796	          0.54225558	         -0.05651580	          0.00050534	          0.00000000	          0.00037466	         27.52148088	        702.04691782	        -14.28880058	         -0.10370013	          0.00000000	          0.36072439	          0.00000000	         -0.00019739	          0.00000000	          0.00000000	          1.05513885	          0.00000000	
          1.48500000	         -0.04283931	          0.54630862	         -0.05631039	          0.00049747	          0.00000000	          0.00036663	         27.99568844	        703.28709508	        -14.41808918	         -0.10339388	          0.00000000	          0.36069043	          0.00000000	         -0.00023266	          0.00000000	          0.00000000	          1.03916905	          0.00000000	
          1.48600000	         -0.04746179	          0.54848207	         -0.05585334	          0.00048681	          0.00000000	          0.00035634	         28.47396372	        704.51565370	        -14.54892832	         -0.10308799	          0.00000000	          0.36065530	          0.00000000	         -0.00027025	          0.00000000	          0.00000000	          1.02318151	          0.00000000	
          1.48700000	         -0.05231781	          0.54859231	         -0.05512315	          0.00047315	          0.00000000	          0.00034362	         28.95635145	        705.73238167	        -14.68114034	         -0.10278250	          0.00000000	          0.36061902	          0.00000000	         -0.00031021	          0.00000000	          0.00000000	          1.00719031	          0.00000000	
          1.48800000	         -0.05740900	          0.54644716	         -0.05409745	          0.00045627	          0.00000000	          0.00032831	         29.44289857	        706.93707508	        -14.81453385	         -0.10247745	          0.00000000	          0.36058159	          0.00000000	         -0.00035261	          0.00000000	          0.00000000	          0.99121038	          0.00000000	
          1.48900000	         -0.06273621	          0.54184590	         -0.05275302	          0.00043594	          0.00000000	          0.00031021	         29.93365379	        708.12954016	        -14.94890385	         -0.10217288	          0.00000000	          0.36054301	          0.00000000	         -0.00039749	          0.00000000	          0.00000000	          0.97525768	          0.00000000	
          1.49000000	         -0.06829934	          0.53457928	         -0.05106580	          0.00041192	          0.00000000	          0.00028916	         30.42866695	        709.30959553	        -15.08403181	         -0.10186884	          0.00000000	          0.36050329	          0.00000000	         -0.00044490	          0.00000000	          0.00000000	          0.95934931	          0.00000000	
          1.49100000	         -0.07409736	          0.52442966	         -0.04901089	          0.00038396	          0.00000000	          0.00026495	         30.92798825	        710.47707455	        -15.21968586	         -0.10156536	          0.00000000	          0.36046243	          0.00000000	         -0.00049488	          0.00000000	          0.00000000	          0.94350356	          0.00000000	
          1.49200000	         -0.08012815	          0.51117103	         -0.04656262	          0.00035182	          0.00000000	          0.00023739	         31.43166720	        711.63182671	        -15.35562148	         -0.10126249	          0.00000000	          0.36042044	          0.00000000	         -0.00054745	          0.00000000	          0.00000000	          0.92773985	          0.00000000	
          1.49300000	         -0.08638843	          0.49456925	         -0.04369455	          0.00031524	          0.00000000	          0.00020630	         31.93975132	        712.77371748	        -15.49158279	         -0.10096027	          0.00000000	          0.36037731	          0.00000000	         -0.00060266	          0.00000000	          0.00000000	          0.91207853	          0.00000000	
          1.49400000	         -0.09287366	          0.47438223	         -0.04037950	          0.00027396	          0.00000000	          0.00017146	         32.45228448	        713.90262651	        -15.62730456	         -0.10065875	          0.00000000	          0.36033305	          0.00000000	         -0.00066050	          0.00000000	          0.00000000	          0.89654053	          0.00000000	
          1.49500000	         -0.09957798	          0.45036017	         -0.03658965	          0.00022771	          0.00000000	          0.00013268	         32.96930488	        715.01844471	        -15.76251483	         -0.10035796	          0.00000000	          0.36028765	          0.00000000	         -0.00072099	          0.00000000	          0.00000000	          0.88114708	          0.00000000	
          1.49600000	         -0.10649405	          0.42224591	         -0.03229650	          0.00017623	          0.00000000	          0.00008975	         33.49084281	        716.12107179	        -15.89693746	         -0.10005794	          0.00000000	          0.36024110	          0.00000000	         -0.00078413	          0.00000000	          0.00000000	          0.86591948	          0.00000000	
          1.49700000	         -0.11361298	          0.38977530	         -0.02747103	          0.00011923	          0.00000000	          0.00004246	         34.01691863	        717.21041554	        -16.03029436	         -0.09975873	          0.00000000	          0.36019342	          0.00000000	         -0.00084989	          0.00000000	          0.00000000	          0.85087912	          0.00000000	
          1.49800000	         -0.12092423	          0.35267761	         -0.02208371	          0.00005644	          0.00000000	         -0.00000940	         34.54754151	        718.28639383	        -16.16230717	         -0.09946037	          0.00000000	          0.36014461	          0.00000000	         -0.00091825	          0.00000000	          0.00000000	          0.83604767	          0.00000000	
